<svg xmlns="http://www.w3.org/2000/svg" xmlns:xlink="http://www.w3.org/1999/xlink" width="400" zoomAndPan="magnify" viewBox="0 0 300 299.999988" height="400" preserveAspectRatio="xMidYMid meet" version="1.2"><defs><clipPath id="20488845d4"><path d="M 0 74.382812 L 300 74.382812 L 300 299.738281 L 0 299.738281 Z M 0 74.382812 "/></clipPath><clipPath id="785bc9cd38"><path d="M 0 139 L 300 139 L 300 299.738281 L 0 299.738281 Z M 0 139 "/></clipPath><clipPath id="0f41f88a60"><path d="M 0 210 L 300 210 L 300 299.738281 L 0 299.738281 Z M 0 210 "/></clipPath></defs><g id="3d81b21c4c"><rect x="0" width="300" y="0" height="299.999988" style="fill:#ffffff;fill-opacity:1;stroke:none;"/><rect x="0" width="300" y="0" height="299.999988" style="fill:#e9f1fc;fill-opacity:1;stroke:none;"/><g clip-rule="nonzero" clip-path="url(#20488845d4)"><path style=" stroke:none;fill-rule:nonzero;fill:#e9f1fc;fill-opacity:1;" d="M -2.167969 70.238281 L 303.410156 70.238281 L 303.410156 299.1875 L -2.167969 299.1875 Z M -2.167969 70.238281 "/></g><path style=" stroke:none;fill-rule:nonzero;fill:#bacdf2;fill-opacity:1;" d="M -2.167969 288.691406 C -2.167969 288.691406 295.527344 289.683594 295.910156 289.347656 L 303.320312 289.347656 L 303.320312 182.757812 L 297.820312 182.757812 L 297.820312 179.960938 L 288.835938 179.960938 L 288.835938 183.140625 L 286.421875 183.140625 L 286.421875 193.957031 L 284.238281 193.957031 L 284.238281 196.753906 L 282.921875 196.753906 L 282.921875 183.691406 L 281.164062 183.691406 L 281.164062 181.644531 L 276.78125 181.644531 L 276.78125 175.851562 L 272.503906 172.214844 L 271.402344 171.285156 L 271.402344 163.171875 L 268.285156 160.511719 L 265.167969 163.171875 L 265.167969 171.191406 L 263.410156 171.191406 L 263.410156 175.667969 L 261.441406 175.667969 L 261.441406 288.601562 L 259.253906 288.601562 L 259.253906 193.957031 L 257.070312 193.957031 L 257.070312 171.757812 L 249.402344 171.757812 L 249.402344 163.171875 L 247.644531 161.871094 L 247.644531 155.148438 L 243.914062 155.148438 L 243.914062 150.289062 L 239.746094 150.289062 L 237.117188 145.8125 L 233.832031 149.921875 L 230.316406 149.921875 L 230.316406 154.582031 L 227.246094 154.582031 L 227.246094 162.421875 L 226.039062 163.445312 L 226.039062 285.605469 L 223.015625 285.605469 L 223.015625 174.738281 L 219.148438 174.738281 L 219.148438 164.652344 L 215.863281 164.652344 L 215.863281 174.738281 L 211.265625 174.738281 L 211.265625 184.074219 L 209.949219 184.074219 L 209.949219 159.992188 L 207.535156 159.992188 L 202.9375 156.261719 L 202.9375 154.398438 L 202.066406 154.398438 L 202.066406 156.261719 L 196.367188 159.808594 L 186.496094 159.808594 L 186.496094 170.441406 L 183.867188 166.714844 L 181.898438 170.078125 L 181.898438 175.667969 L 179.925781 175.667969 L 179.925781 185.1875 L 174.015625 185.1875 L 174.015625 174.171875 L 168.316406 169.695312 L 159.773438 169.695312 L 156.046875 171.941406 L 156.046875 192.09375 L 150.316406 192.09375 L 150.316406 179.777344 L 135.632812 179.777344 L 135.632812 191.527344 L 132.5625 191.527344 L 132.5625 184.074219 L 112.394531 184.074219 L 112.394531 193.773438 L 101.4375 193.773438 L 101.4375 199.367188 L 92.898438 199.367188 L 92.898438 182.207031 L 88.957031 182.207031 L 88.957031 178.097656 L 87.855469 178.097656 L 87.855469 173.4375 L 86.753906 173.4375 L 86.753906 170.261719 L 73.601562 170.261719 L 73.601562 173.4375 L 72.285156 173.4375 L 72.285156 182.574219 L 63.957031 182.574219 L 63.957031 187.617188 L 52.347656 187.617188 L 52.347656 176.601562 L 51.246094 176.601562 L 51.246094 172.125 L 50.148438 172.125 L 50.148438 168.394531 L 48.617188 168.394531 L 48.617188 165.964844 L 38.535156 165.964844 L 38.535156 168.015625 L 36.335938 168.015625 L 36.335938 171.375 L 35.464844 171.375 L 35.464844 180.144531 L 14.210938 180.144531 L 14.210938 286.171875 L 12.453125 286.171875 L 12.453125 197.503906 L 4.125 197.503906 L 4.125 187.234375 L -0.472656 185.753906 Z M -2.167969 288.691406 "/><g clip-rule="nonzero" clip-path="url(#785bc9cd38)"><path style=" stroke:none;fill-rule:nonzero;fill:#9bb6e2;fill-opacity:1;" d="M -2.167969 299.738281 L -2.167969 286.507812 L 1.375 286.507812 L 1.375 254.664062 L 3.332031 254.664062 L 3.332031 252.433594 L 14.988281 248.507812 L 14.988281 225.570312 L 18.65625 225.050781 L 18.65625 222.042969 L 16.824219 221.386719 L 30.070312 221.386719 L 28.496094 222.164062 L 28.496094 225.175781 C 28.496094 225.175781 30.46875 225.3125 31.246094 225.433594 L 31.246094 231.074219 L 32.683594 230.019531 L 32.683594 224.777344 L 33.203125 224.777344 L 33.203125 230.003906 L 34.777344 231.578125 L 34.777344 196.34375 L 41.542969 176.113281 L 42.628906 175.453125 L 42.628906 167.371094 L 43.195312 166.195312 L 43.804688 167.417969 L 43.804688 175.410156 L 44.632812 175.851562 L 46.769531 182.191406 L 51.613281 184.683594 L 51.613281 188.304688 L 52.53125 188.304688 L 52.53125 186.027344 L 53.445312 188.214844 C 53.445312 188.214844 54.835938 188.609375 54.835938 190.351562 C 54.835938 192.09375 54.835938 292.832031 54.835938 292.832031 L 56.195312 292.832031 L 56.898438 293.183594 L 56.855469 291.65625 L 58.472656 291.65625 L 58.472656 277.507812 L 58.105469 277.140625 L 57.695312 276.726562 L 57.695312 274.285156 L 62.371094 274.285156 L 62.371094 271.136719 L 61.894531 271.136719 L 61.894531 262.304688 L 67.320312 262.304688 L 68.070312 262.871094 L 68.070312 271.074219 L 67.550781 271.074219 L 67.550781 273.046875 L 68.464844 273.046875 L 68.464844 271.914062 L 70.695312 271.914062 L 70.695312 273.046875 L 71.355469 273.046875 L 71.355469 236.664062 L 72.316406 236.664062 L 72.316406 234.035156 L 72.773438 233.578125 L 72.773438 229.054688 L 72.226562 228.503906 L 72.757812 228.0625 L 72.714844 226.367188 L 74.148438 226.367188 L 74.148438 227.191406 L 76.167969 227.191406 L 77.648438 226.320312 L 77.601562 225.542969 L 79.480469 225.542969 L 79.480469 199.167969 L 81.558594 199.167969 L 81.558594 200.527344 L 85.441406 200.527344 L 85.441406 195.242188 L 90.332031 195.242188 L 90.332031 200.34375 L 91.339844 200.34375 L 91.339844 199.292969 L 93.386719 199.292969 L 93.386719 201.339844 L 95.464844 201.339844 L 95.464844 175.777344 C 95.464844 175.777344 100.703125 170.535156 100.046875 161.886719 L 101.484375 163.0625 L 103.179688 154.015625 L 104.097656 154.933594 L 104.875 149.296875 L 105.792969 149.953125 L 107.230469 144.054688 L 109.460938 146.546875 L 110.636719 144.851562 L 111.554688 149.832031 L 112.730469 149.433594 L 113.125 151.265625 L 113.785156 150.609375 L 114.699219 156.507812 L 115.359375 156.25 L 116.136719 162.542969 L 116.535156 163.859375 L 116.535156 251.257812 L 118.765625 251.257812 L 118.765625 255.445312 L 119.542969 255.445312 L 119.542969 224.914062 L 120.324219 224.914062 L 120.324219 220.988281 L 123.074219 220.988281 L 123.074219 208.671875 L 123.851562 208.671875 L 123.851562 206.042969 C 123.851562 206.042969 129.09375 202.378906 139.175781 202.5 L 140.09375 202.5 L 140.09375 205.921875 L 141.011719 207.097656 L 141.011719 296.210938 L 144.019531 296.210938 L 144.679688 295.15625 L 149.917969 295.15625 L 149.917969 293.980469 L 154.378906 293.980469 L 154.976562 294.574219 L 154.976562 163.199219 L 156.0625 162.117188 L 156.0625 157.164062 L 157.253906 155.972656 L 157.253906 153.496094 C 157.253906 153.496094 158.445312 149.695312 161.851562 148.121094 C 161.851562 148.121094 163.425781 148.898438 163.289062 139.867188 L 163.808594 139.730469 C 163.808594 139.730469 163.027344 146.148438 165.121094 147.980469 C 165.121094 147.980469 168.835938 149.160156 170.011719 153.484375 L 170.011719 156.492188 L 171.019531 157.273438 L 171.277344 158.96875 L 171.277344 161.855469 L 171.539062 163.171875 L 171.539062 181.382812 L 175.34375 183.078125 L 175.34375 186.515625 L 177.175781 186.515625 L 177.175781 189.269531 L 178.351562 189.269531 L 178.351562 191.238281 L 179.925781 194.386719 L 179.925781 206.578125 L 181.242188 206.578125 L 180.1875 204.609375 L 183.792969 201.003906 L 183.792969 199.765625 L 190.667969 199.765625 L 190.667969 200.941406 L 194.59375 204.867188 L 193.417969 206.304688 L 194.730469 206.441406 L 195.25 208.015625 L 195.25 266.980469 L 196.949219 266.980469 L 196.949219 269.074219 L 198.125 269.074219 L 198.125 273.257812 L 198.902344 273.257812 L 198.902344 294.238281 L 200.339844 294.238281 L 201.257812 293.320312 L 201.257812 220.726562 L 202.691406 220.726562 L 202.691406 217.839844 L 204.527344 217.0625 L 204.527344 215.367188 L 205.582031 215.367188 C 205.582031 215.367188 204.265625 211.179688 209.246094 211.042969 C 209.246094 211.042969 214.488281 210.382812 214.886719 214.847656 L 216.0625 215.761719 L 217.117188 217.335938 L 217.117188 211.042969 L 231.402344 211.042969 L 232.578125 211.5625 L 233.890625 193.605469 L 236.246094 193.605469 C 236.246094 193.605469 236.640625 183.78125 238.996094 174.21875 L 242.9375 174.21875 L 243.457031 171.863281 L 244.894531 171.863281 L 245.03125 176.324219 C 245.03125 176.324219 246.207031 175.273438 245.6875 206.335938 L 247.324219 207.96875 L 247.324219 265.957031 L 258.78125 265.957031 L 258.78125 279.84375 L 260.617188 279.84375 C 260.617188 279.84375 257.070312 237.261719 257.726562 216.679688 C 257.726562 216.679688 258.902344 188.761719 259.042969 186.53125 L 261.667969 184.699219 L 276.996094 184.699219 C 276.996094 184.699219 278.691406 214.050781 277.910156 226.765625 L 276.855469 273.671875 L 278.554688 273.671875 L 278.554688 271.976562 L 279.46875 271.058594 L 279.46875 264.503906 L 287.199219 264.503906 C 287.199219 264.503906 288.253906 262.410156 289.949219 260.316406 C 289.949219 260.316406 291.648438 261.753906 292.441406 263.726562 L 297.941406 263.726562 C 297.941406 263.726562 297.023438 263.984375 297.023438 267.390625 C 297.023438 267.390625 297.285156 266.078125 299.378906 265.421875 C 299.378906 265.421875 298.597656 265.820312 299.117188 270.523438 L 303.304688 270.523438 L 303.304688 299.722656 Z M -2.167969 299.738281 "/></g><g clip-rule="nonzero" clip-path="url(#0f41f88a60)"><path style=" stroke:none;fill-rule:nonzero;fill:#6584a9;fill-opacity:1;" d="M -2.09375 271.058594 L 0.152344 271.058594 L 0.152344 246.980469 L 3.132812 246.980469 L 3.132812 244.183594 L 10.789062 244.183594 L 10.789062 247.359375 L 12.835938 247.359375 L 12.835938 258.179688 L 14.699219 258.179688 L 14.699219 260.976562 L 15.816406 260.976562 L 15.816406 247.910156 L 17.3125 247.910156 L 17.3125 245.863281 L 21.054688 245.863281 L 21.054688 240.074219 L 25.625 235.503906 L 25.625 227.390625 L 28.28125 224.730469 L 30.941406 227.390625 L 30.941406 235.414062 L 32.4375 235.414062 L 32.4375 239.890625 L 34.117188 239.890625 L 34.117188 270.3125 L 35.984375 270.3125 L 35.984375 258.179688 L 37.847656 258.179688 L 37.847656 235.976562 L 44.371094 235.976562 L 44.371094 227.390625 L 45.867188 226.089844 L 45.867188 219.367188 L 49.046875 219.367188 L 49.046875 214.507812 L 52.589844 214.507812 L 54.835938 210.03125 L 57.632812 214.144531 L 60.613281 214.144531 L 60.613281 218.804688 L 63.226562 218.804688 L 63.226562 226.640625 L 64.25 227.664062 L 64.25 267.316406 L 66.832031 267.316406 L 66.832031 238.941406 L 70.132812 238.941406 L 70.132812 228.855469 L 72.925781 228.855469 L 72.925781 238.941406 L 76.839844 238.941406 L 76.839844 248.277344 L 77.953125 248.277344 L 77.953125 224.195312 L 80.03125 224.195312 L 83.945312 220.46875 L 83.945312 218.605469 L 84.691406 218.605469 L 84.691406 220.46875 L 89.550781 224.011719 L 97.953125 224.011719 L 97.953125 234.648438 L 100.199219 230.921875 L 101.882812 234.28125 L 101.882812 239.875 L 103.5625 239.875 L 103.5625 249.394531 L 108.605469 249.394531 L 108.605469 238.375 L 113.464844 233.898438 L 120.734375 233.898438 L 123.914062 236.144531 L 123.914062 256.300781 L 128.773438 256.300781 L 128.773438 243.984375 L 141.269531 243.984375 L 141.269531 255.734375 L 143.882812 255.734375 L 143.882812 248.261719 L 161.058594 248.261719 L 161.058594 257.964844 L 170.394531 257.964844 L 170.394531 263.558594 L 177.664062 263.558594 L 177.664062 246.382812 L 181.027344 246.382812 L 181.027344 242.273438 L 181.957031 242.273438 L 181.957031 237.613281 L 182.890625 237.613281 L 182.890625 234.433594 L 194.089844 234.433594 L 194.089844 237.613281 L 195.207031 237.613281 L 195.207031 246.75 L 202.296875 246.75 L 202.296875 251.792969 L 212.179688 251.792969 L 212.179688 240.773438 L 213.113281 240.773438 L 213.113281 236.296875 L 214.042969 236.296875 L 214.042969 232.570312 L 215.34375 232.570312 L 215.34375 230.140625 L 223.929688 230.140625 L 223.929688 232.1875 L 225.792969 232.1875 L 225.792969 235.550781 L 226.542969 235.550781 L 226.542969 244.320312 L 244.648438 244.320312 L 244.648438 267.835938 L 246.144531 267.835938 L 246.144531 261.679688 L 253.234375 261.679688 L 253.234375 251.410156 L 257.148438 251.410156 L 257.148438 249.914062 L 267.414062 249.914062 L 267.414062 247.484375 L 267.414062 283.496094 C 267.414062 283.496094 270.394531 285.359375 270.394531 283.496094 C 270.394531 281.632812 270.394531 251.578125 270.394531 251.578125 L 279.914062 251.578125 L 279.914062 283.863281 L 281.410156 283.863281 L 281.410156 251.578125 L 291.675781 251.578125 L 291.675781 285.359375 L 292.792969 285.359375 L 292.792969 261.847656 L 303.425781 261.847656 L 303.425781 299.433594 L -2.09375 299.433594 C -2.09375 299.433594 -2.277344 270.875 -2.09375 271.058594 Z M -2.09375 271.058594 "/></g><g style="fill:#e9f1fc;fill-opacity:1;"><g transform="translate(118.630976, 52.094743)"><path style="stroke:none" d="M 5.953125 0 L 1.171875 0 L 1.171875 -8.5625 L 5.953125 -8.5625 L 5.953125 -7.6875 L 2.171875 -7.6875 L 2.171875 -4.921875 L 5.71875 -4.921875 L 5.71875 -4.046875 L 2.171875 -4.046875 L 2.171875 -0.890625 L 5.953125 -0.890625 Z M 5.953125 0 "/></g><g transform="translate(125.304804, 52.094743)"><path style="stroke:none" d="M 2 0 L 1.03125 0 L 1.03125 -9.125 L 2 -9.125 Z M 2 0 "/></g><g transform="translate(128.33996, 52.094743)"><path style="stroke:none" d=""/></g><g transform="translate(131.457147, 52.094743)"><path style="stroke:none" d="M 3.109375 -0.6875 C 3.273438 -0.6875 3.4375 -0.695312 3.59375 -0.71875 C 3.757812 -0.75 3.890625 -0.773438 3.984375 -0.796875 L 3.984375 -0.0625 C 3.878906 -0.0078125 3.722656 0.03125 3.515625 0.0625 C 3.316406 0.101562 3.132812 0.125 2.96875 0.125 C 1.726562 0.125 1.109375 -0.53125 1.109375 -1.84375 L 1.109375 -5.671875 L 0.1875 -5.671875 L 0.1875 -6.140625 L 1.109375 -6.546875 L 1.515625 -7.90625 L 2.078125 -7.90625 L 2.078125 -6.421875 L 3.9375 -6.421875 L 3.9375 -5.671875 L 2.078125 -5.671875 L 2.078125 -1.890625 C 2.078125 -1.503906 2.164062 -1.207031 2.34375 -1 C 2.53125 -0.789062 2.785156 -0.6875 3.109375 -0.6875 Z M 3.109375 -0.6875 "/></g><g transform="translate(135.693475, 52.094743)"><path style="stroke:none" d="M 3.75 0.125 C 2.800781 0.125 2.050781 -0.164062 1.5 -0.75 C 0.945312 -1.332031 0.671875 -2.132812 0.671875 -3.15625 C 0.671875 -4.195312 0.925781 -5.019531 1.4375 -5.625 C 1.945312 -6.238281 2.632812 -6.546875 3.5 -6.546875 C 4.300781 -6.546875 4.9375 -6.28125 5.40625 -5.75 C 5.875 -5.21875 6.109375 -4.519531 6.109375 -3.65625 L 6.109375 -3.03125 L 1.6875 -3.03125 C 1.707031 -2.28125 1.894531 -1.707031 2.25 -1.3125 C 2.613281 -0.925781 3.125 -0.734375 3.78125 -0.734375 C 4.46875 -0.734375 5.148438 -0.878906 5.828125 -1.171875 L 5.828125 -0.296875 C 5.484375 -0.148438 5.15625 -0.046875 4.84375 0.015625 C 4.539062 0.0859375 4.175781 0.125 3.75 0.125 Z M 3.484375 -5.71875 C 2.960938 -5.71875 2.546875 -5.550781 2.234375 -5.21875 C 1.929688 -4.882812 1.753906 -4.421875 1.703125 -3.828125 L 5.0625 -3.828125 C 5.0625 -4.441406 4.925781 -4.910156 4.65625 -5.234375 C 4.382812 -5.554688 3.992188 -5.71875 3.484375 -5.71875 Z M 3.484375 -5.71875 "/></g><g transform="translate(142.425896, 52.094743)"><path style="stroke:none" d="M 2.578125 -3.28125 L 0.34375 -6.421875 L 1.453125 -6.421875 L 3.140625 -3.96875 L 4.828125 -6.421875 L 5.9375 -6.421875 L 3.703125 -3.28125 L 6.046875 0 L 4.953125 0 L 3.140625 -2.609375 L 1.328125 0 L 0.234375 0 Z M 2.578125 -3.28125 "/></g><g transform="translate(148.713005, 52.094743)"><path style="stroke:none" d="M 3.109375 -0.6875 C 3.273438 -0.6875 3.4375 -0.695312 3.59375 -0.71875 C 3.757812 -0.75 3.890625 -0.773438 3.984375 -0.796875 L 3.984375 -0.0625 C 3.878906 -0.0078125 3.722656 0.03125 3.515625 0.0625 C 3.316406 0.101562 3.132812 0.125 2.96875 0.125 C 1.726562 0.125 1.109375 -0.53125 1.109375 -1.84375 L 1.109375 -5.671875 L 0.1875 -5.671875 L 0.1875 -6.140625 L 1.109375 -6.546875 L 1.515625 -7.90625 L 2.078125 -7.90625 L 2.078125 -6.421875 L 3.9375 -6.421875 L 3.9375 -5.671875 L 2.078125 -5.671875 L 2.078125 -1.890625 C 2.078125 -1.503906 2.164062 -1.207031 2.34375 -1 C 2.53125 -0.789062 2.785156 -0.6875 3.109375 -0.6875 Z M 3.109375 -0.6875 "/></g><g transform="translate(152.949333, 52.094743)"><path style="stroke:none" d="M 6.578125 -3.21875 C 6.578125 -2.164062 6.3125 -1.34375 5.78125 -0.75 C 5.257812 -0.164062 4.53125 0.125 3.59375 0.125 C 3.019531 0.125 2.507812 -0.0078125 2.0625 -0.28125 C 1.625 -0.550781 1.28125 -0.9375 1.03125 -1.4375 C 0.789062 -1.945312 0.671875 -2.539062 0.671875 -3.21875 C 0.671875 -4.257812 0.929688 -5.070312 1.453125 -5.65625 C 1.984375 -6.25 2.710938 -6.546875 3.640625 -6.546875 C 4.535156 -6.546875 5.25 -6.242188 5.78125 -5.640625 C 6.3125 -5.046875 6.578125 -4.238281 6.578125 -3.21875 Z M 1.6875 -3.21875 C 1.6875 -2.394531 1.847656 -1.769531 2.171875 -1.34375 C 2.503906 -0.914062 2.988281 -0.703125 3.625 -0.703125 C 4.257812 -0.703125 4.738281 -0.914062 5.0625 -1.34375 C 5.394531 -1.769531 5.5625 -2.394531 5.5625 -3.21875 C 5.5625 -4.03125 5.394531 -4.648438 5.0625 -5.078125 C 4.738281 -5.503906 4.253906 -5.71875 3.609375 -5.71875 C 2.972656 -5.71875 2.492188 -5.503906 2.171875 -5.078125 C 1.847656 -4.660156 1.6875 -4.039062 1.6875 -3.21875 Z M 1.6875 -3.21875 "/></g><g transform="translate(160.197379, 52.094743)"><path style="stroke:none" d=""/></g><g transform="translate(163.314567, 52.094743)"><path style="stroke:none" d="M 5.40625 -0.859375 L 5.34375 -0.859375 C 4.894531 -0.203125 4.222656 0.125 3.328125 0.125 C 2.492188 0.125 1.84375 -0.160156 1.375 -0.734375 C 0.90625 -1.316406 0.671875 -2.132812 0.671875 -3.1875 C 0.671875 -4.25 0.90625 -5.070312 1.375 -5.65625 C 1.84375 -6.25 2.492188 -6.546875 3.328125 -6.546875 C 4.203125 -6.546875 4.875 -6.226562 5.34375 -5.59375 L 5.421875 -5.59375 L 5.375 -6.046875 L 5.34375 -6.5 L 5.34375 -9.125 L 6.328125 -9.125 L 6.328125 0 L 5.53125 0 Z M 3.453125 -0.703125 C 4.117188 -0.703125 4.597656 -0.878906 4.890625 -1.234375 C 5.191406 -1.597656 5.34375 -2.179688 5.34375 -2.984375 L 5.34375 -3.1875 C 5.34375 -4.101562 5.191406 -4.753906 4.890625 -5.140625 C 4.585938 -5.523438 4.109375 -5.71875 3.453125 -5.71875 C 2.878906 -5.71875 2.441406 -5.492188 2.140625 -5.046875 C 1.835938 -4.609375 1.6875 -3.988281 1.6875 -3.1875 C 1.6875 -2.363281 1.832031 -1.742188 2.125 -1.328125 C 2.425781 -0.910156 2.867188 -0.703125 3.453125 -0.703125 Z M 3.453125 -0.703125 "/></g><g transform="translate(170.668082, 52.094743)"><path style="stroke:none" d="M 3.75 0.125 C 2.800781 0.125 2.050781 -0.164062 1.5 -0.75 C 0.945312 -1.332031 0.671875 -2.132812 0.671875 -3.15625 C 0.671875 -4.195312 0.925781 -5.019531 1.4375 -5.625 C 1.945312 -6.238281 2.632812 -6.546875 3.5 -6.546875 C 4.300781 -6.546875 4.9375 -6.28125 5.40625 -5.75 C 5.875 -5.21875 6.109375 -4.519531 6.109375 -3.65625 L 6.109375 -3.03125 L 1.6875 -3.03125 C 1.707031 -2.28125 1.894531 -1.707031 2.25 -1.3125 C 2.613281 -0.925781 3.125 -0.734375 3.78125 -0.734375 C 4.46875 -0.734375 5.148438 -0.878906 5.828125 -1.171875 L 5.828125 -0.296875 C 5.484375 -0.148438 5.15625 -0.046875 4.84375 0.015625 C 4.539062 0.0859375 4.175781 0.125 3.75 0.125 Z M 3.484375 -5.71875 C 2.960938 -5.71875 2.546875 -5.550781 2.234375 -5.21875 C 1.929688 -4.882812 1.753906 -4.421875 1.703125 -3.828125 L 5.0625 -3.828125 C 5.0625 -4.441406 4.925781 -4.910156 4.65625 -5.234375 C 4.382812 -5.554688 3.992188 -5.71875 3.484375 -5.71875 Z M 3.484375 -5.71875 "/></g><g transform="translate(177.400503, 52.094743)"><path style="stroke:none" d="M 2 0 L 1.03125 0 L 1.03125 -9.125 L 2 -9.125 Z M 2 0 "/></g><g transform="translate(180.435659, 52.094743)"><path style="stroke:none" d=""/></g><g transform="translate(183.552846, 52.094743)"><path style="stroke:none" d="M 4.015625 0.125 C 3.597656 0.125 3.21875 0.046875 2.875 -0.109375 C 2.53125 -0.265625 2.238281 -0.503906 2 -0.828125 L 1.9375 -0.828125 C 1.976562 -0.453125 2 -0.0976562 2 0.234375 L 2 2.890625 L 1.03125 2.890625 L 1.03125 -6.421875 L 1.828125 -6.421875 L 1.953125 -5.546875 L 2 -5.546875 C 2.25 -5.898438 2.539062 -6.15625 2.875 -6.3125 C 3.207031 -6.46875 3.585938 -6.546875 4.015625 -6.546875 C 4.867188 -6.546875 5.523438 -6.253906 5.984375 -5.671875 C 6.453125 -5.085938 6.6875 -4.269531 6.6875 -3.21875 C 6.6875 -2.164062 6.453125 -1.34375 5.984375 -0.75 C 5.515625 -0.164062 4.859375 0.125 4.015625 0.125 Z M 3.875 -5.71875 C 3.21875 -5.71875 2.742188 -5.535156 2.453125 -5.171875 C 2.160156 -4.804688 2.007812 -4.226562 2 -3.4375 L 2 -3.21875 C 2 -2.3125 2.148438 -1.664062 2.453125 -1.28125 C 2.753906 -0.894531 3.238281 -0.703125 3.90625 -0.703125 C 4.457031 -0.703125 4.890625 -0.925781 5.203125 -1.375 C 5.515625 -1.820312 5.671875 -2.441406 5.671875 -3.234375 C 5.671875 -4.035156 5.515625 -4.648438 5.203125 -5.078125 C 4.890625 -5.503906 4.445312 -5.71875 3.875 -5.71875 Z M 3.875 -5.71875 "/></g><g transform="translate(190.906361, 52.094743)"><path style="stroke:none" d="M 4.984375 0 L 4.78125 -0.921875 L 4.734375 -0.921875 C 4.421875 -0.515625 4.101562 -0.238281 3.78125 -0.09375 C 3.46875 0.0507812 3.070312 0.125 2.59375 0.125 C 1.957031 0.125 1.457031 -0.0390625 1.09375 -0.375 C 0.726562 -0.707031 0.546875 -1.175781 0.546875 -1.78125 C 0.546875 -3.070312 1.582031 -3.75 3.65625 -3.8125 L 4.75 -3.84375 L 4.75 -4.25 C 4.75 -4.75 4.640625 -5.117188 4.421875 -5.359375 C 4.210938 -5.597656 3.867188 -5.71875 3.390625 -5.71875 C 2.847656 -5.71875 2.242188 -5.554688 1.578125 -5.234375 L 1.265625 -5.984375 C 1.585938 -6.148438 1.9375 -6.28125 2.3125 -6.375 C 2.6875 -6.476562 3.066406 -6.53125 3.453125 -6.53125 C 4.210938 -6.53125 4.773438 -6.359375 5.140625 -6.015625 C 5.515625 -5.679688 5.703125 -5.140625 5.703125 -4.390625 L 5.703125 0 Z M 2.78125 -0.6875 C 3.382812 -0.6875 3.859375 -0.851562 4.203125 -1.1875 C 4.554688 -1.519531 4.734375 -1.984375 4.734375 -2.578125 L 4.734375 -3.15625 L 3.75 -3.125 C 2.976562 -3.09375 2.421875 -2.96875 2.078125 -2.75 C 1.742188 -2.539062 1.578125 -2.210938 1.578125 -1.765625 C 1.578125 -1.410156 1.679688 -1.140625 1.890625 -0.953125 C 2.097656 -0.773438 2.394531 -0.6875 2.78125 -0.6875 Z M 2.546875 -7.421875 C 2.734375 -7.660156 2.9375 -7.953125 3.15625 -8.296875 C 3.375 -8.640625 3.546875 -8.9375 3.671875 -9.1875 L 4.859375 -9.1875 L 4.859375 -9.078125 C 4.679688 -8.816406 4.421875 -8.5 4.078125 -8.125 C 3.742188 -7.757812 3.453125 -7.472656 3.203125 -7.265625 L 2.546875 -7.265625 Z M 2.546875 -7.421875 "/></g><g transform="translate(197.580189, 52.094743)"><path style="stroke:none" d="M 3.96875 -6.546875 C 4.25 -6.546875 4.503906 -6.519531 4.734375 -6.46875 L 4.59375 -5.5625 C 4.332031 -5.625 4.097656 -5.65625 3.890625 -5.65625 C 3.367188 -5.65625 2.921875 -5.441406 2.546875 -5.015625 C 2.179688 -4.597656 2 -4.078125 2 -3.453125 L 2 0 L 1.03125 0 L 1.03125 -6.421875 L 1.828125 -6.421875 L 1.953125 -5.234375 L 2 -5.234375 C 2.226562 -5.648438 2.507812 -5.972656 2.84375 -6.203125 C 3.1875 -6.429688 3.5625 -6.546875 3.96875 -6.546875 Z M 3.96875 -6.546875 "/></g><g transform="translate(202.478626, 52.094743)"><path style="stroke:none" d="M 3.96875 -6.546875 C 4.25 -6.546875 4.503906 -6.519531 4.734375 -6.46875 L 4.59375 -5.5625 C 4.332031 -5.625 4.097656 -5.65625 3.890625 -5.65625 C 3.367188 -5.65625 2.921875 -5.441406 2.546875 -5.015625 C 2.179688 -4.597656 2 -4.078125 2 -3.453125 L 2 0 L 1.03125 0 L 1.03125 -6.421875 L 1.828125 -6.421875 L 1.953125 -5.234375 L 2 -5.234375 C 2.226562 -5.648438 2.507812 -5.972656 2.84375 -6.203125 C 3.1875 -6.429688 3.5625 -6.546875 3.96875 -6.546875 Z M 3.96875 -6.546875 "/></g><g transform="translate(207.377063, 52.094743)"><path style="stroke:none" d="M 4.984375 0 L 4.78125 -0.921875 L 4.734375 -0.921875 C 4.421875 -0.515625 4.101562 -0.238281 3.78125 -0.09375 C 3.46875 0.0507812 3.070312 0.125 2.59375 0.125 C 1.957031 0.125 1.457031 -0.0390625 1.09375 -0.375 C 0.726562 -0.707031 0.546875 -1.175781 0.546875 -1.78125 C 0.546875 -3.070312 1.582031 -3.75 3.65625 -3.8125 L 4.75 -3.84375 L 4.75 -4.25 C 4.75 -4.75 4.640625 -5.117188 4.421875 -5.359375 C 4.210938 -5.597656 3.867188 -5.71875 3.390625 -5.71875 C 2.847656 -5.71875 2.242188 -5.554688 1.578125 -5.234375 L 1.265625 -5.984375 C 1.585938 -6.148438 1.9375 -6.28125 2.3125 -6.375 C 2.6875 -6.476562 3.066406 -6.53125 3.453125 -6.53125 C 4.210938 -6.53125 4.773438 -6.359375 5.140625 -6.015625 C 5.515625 -5.679688 5.703125 -5.140625 5.703125 -4.390625 L 5.703125 0 Z M 2.78125 -0.6875 C 3.382812 -0.6875 3.859375 -0.851562 4.203125 -1.1875 C 4.554688 -1.519531 4.734375 -1.984375 4.734375 -2.578125 L 4.734375 -3.15625 L 3.75 -3.125 C 2.976562 -3.09375 2.421875 -2.96875 2.078125 -2.75 C 1.742188 -2.539062 1.578125 -2.210938 1.578125 -1.765625 C 1.578125 -1.410156 1.679688 -1.140625 1.890625 -0.953125 C 2.097656 -0.773438 2.394531 -0.6875 2.78125 -0.6875 Z M 2.78125 -0.6875 "/></g><g transform="translate(214.050891, 52.094743)"><path style="stroke:none" d="M 3.921875 -5.671875 L 2.296875 -5.671875 L 2.296875 0 L 1.3125 0 L 1.3125 -5.671875 L 0.171875 -5.671875 L 0.171875 -6.109375 L 1.3125 -6.453125 L 1.3125 -6.8125 C 1.3125 -8.394531 2.003906 -9.1875 3.390625 -9.1875 C 3.722656 -9.1875 4.117188 -9.117188 4.578125 -8.984375 L 4.328125 -8.203125 C 3.953125 -8.316406 3.632812 -8.375 3.375 -8.375 C 3 -8.375 2.722656 -8.25 2.546875 -8 C 2.378906 -7.757812 2.296875 -7.375 2.296875 -6.84375 L 2.296875 -6.421875 L 3.921875 -6.421875 Z M 3.921875 -5.671875 "/></g><g transform="translate(218.117297, 52.094743)"><path style="stroke:none" d="M 6.578125 -3.21875 C 6.578125 -2.164062 6.3125 -1.34375 5.78125 -0.75 C 5.257812 -0.164062 4.53125 0.125 3.59375 0.125 C 3.019531 0.125 2.507812 -0.0078125 2.0625 -0.28125 C 1.625 -0.550781 1.28125 -0.9375 1.03125 -1.4375 C 0.789062 -1.945312 0.671875 -2.539062 0.671875 -3.21875 C 0.671875 -4.257812 0.929688 -5.070312 1.453125 -5.65625 C 1.984375 -6.25 2.710938 -6.546875 3.640625 -6.546875 C 4.535156 -6.546875 5.25 -6.242188 5.78125 -5.640625 C 6.3125 -5.046875 6.578125 -4.238281 6.578125 -3.21875 Z M 1.6875 -3.21875 C 1.6875 -2.394531 1.847656 -1.769531 2.171875 -1.34375 C 2.503906 -0.914062 2.988281 -0.703125 3.625 -0.703125 C 4.257812 -0.703125 4.738281 -0.914062 5.0625 -1.34375 C 5.394531 -1.769531 5.5625 -2.394531 5.5625 -3.21875 C 5.5625 -4.03125 5.394531 -4.648438 5.0625 -5.078125 C 4.738281 -5.503906 4.253906 -5.71875 3.609375 -5.71875 C 2.972656 -5.71875 2.492188 -5.503906 2.171875 -5.078125 C 1.847656 -4.660156 1.6875 -4.039062 1.6875 -3.21875 Z M 1.6875 -3.21875 "/></g></g></g></svg>